<svg width="112" height="50" viewBox="0 0 112 50" fill="none" xmlns="http://www.w3.org/2000/svg">
<path d="M59.7139 35V13.6719H65.3535C67.8438 13.6719 69.8262 14.4629 71.3008 16.0449C72.7852 17.627 73.542 19.7949 73.5713 22.5488V26.0059C73.5713 28.8086 72.8291 31.0107 71.3447 32.6123C69.8701 34.2041 67.834 35 65.2363 35H59.7139ZM64.0205 17.2607V31.4258H65.3096C66.7451 31.4258 67.7559 31.0498 68.3418 30.2979C68.9277 29.5361 69.2354 28.2275 69.2646 26.3721V22.666C69.2646 20.6738 68.9863 19.2871 68.4297 18.5059C67.873 17.7148 66.9258 17.2998 65.5879 17.2607H64.0205ZM75.9883 26.5625C75.9883 24.1602 76.5547 22.2754 77.6875 20.9082C78.8203 19.541 80.3877 18.8574 82.3896 18.8574C84.4111 18.8574 85.9883 19.541 87.1211 20.9082C88.2539 22.2754 88.8203 24.1699 88.8203 26.5918V27.6025C88.8203 30.0146 88.2588 31.8994 87.1357 33.2568C86.0127 34.6143 84.4404 35.293 82.4189 35.293C80.3877 35.293 78.8057 34.6143 77.6729 33.2568C76.5498 31.8896 75.9883 29.9951 75.9883 27.5732V26.5625ZM80.1484 27.6025C80.1484 30.4346 80.9053 31.8506 82.4189 31.8506C83.8154 31.8506 84.5674 30.6689 84.6748 28.3057L84.6895 26.5625C84.6895 25.1172 84.4893 24.0479 84.0889 23.3545C83.6885 22.6514 83.1221 22.2998 82.3896 22.2998C81.6865 22.2998 81.1348 22.6514 80.7344 23.3545C80.3438 24.0479 80.1484 25.1172 80.1484 26.5625V27.6025ZM96.6719 28.8916L95.5586 30.1367V35H91.4131V12.5H95.5586V24.6582L96.0713 23.8965L98.9424 19.1504H103.879L99.2793 25.6836L104.318 35H99.5723L96.6719 28.8916ZM110.119 35H105.959V19.1504H110.119V35ZM105.769 15.0488C105.769 14.4043 105.974 13.877 106.384 13.4668C106.794 13.0566 107.341 12.8516 108.024 12.8516C108.708 12.8516 109.255 13.0566 109.665 13.4668C110.075 13.877 110.28 14.4043 110.28 15.0488C110.28 15.6836 110.075 16.2109 109.665 16.6309C109.265 17.0508 108.718 17.2607 108.024 17.2607C107.331 17.2607 106.779 17.0508 106.369 16.6309C105.969 16.2109 105.769 15.6836 105.769 15.0488Z" fill="#002856"/>
<path fill-rule="evenodd" clip-rule="evenodd" d="M30.1878 49.2913C20.3944 51.4061 10.2869 47.4515 4.52849 39.2523C-1.23106 31.0531 -1.51904 20.2034 3.79279 11.7097C9.10461 3.21494 18.9871 -1.27315 28.8805 0.316698C-2.17976 -0.851512 -2.30255 41.8235 23.0014 43.1884C27.3906 39.5131 32.7731 38.7285 34.7411 36.6442C36.7102 34.9827 39.1749 36.215 38.8293 37.1985C37.9643 38.4145 37.2036 39.2632 35.8691 40.1988C33.6555 41.7583 32.4101 43.0254 32.1352 43.9936C32.5829 43.2297 34.6194 42.3321 36.783 40.9954C39.4335 39.5631 43.0088 36.1194 44.328 33.8307C45.3289 32.0942 47.7881 32.3778 47.7099 33.6373C46.6895 36.4443 43.1653 40.2434 39.991 44.0491C37.7459 46.7365 34.1978 48.5013 30.1878 49.2913Z" fill="url(#paint0_linear_201_2153)"/>
<path fill-rule="evenodd" clip-rule="evenodd" d="M21.2705 4.87793H29.3002C29.824 4.87793 30.2978 5.11048 30.6206 5.47779C30.4565 9.68878 28.8318 13.0739 25.6532 16.4209C24.0688 18.0901 22.3073 19.5648 20.6381 21.1448C19.0395 22.6586 17.4855 24.3115 16.4945 26.3013C16.426 26.4393 16.3597 26.5784 16.2999 26.7175H10.9892C10.0188 26.7175 9.22656 25.9231 9.22656 24.9548V16.9252C9.22656 15.9558 10.0199 15.1625 10.9892 15.1625H19.5079V6.64274C19.5068 5.67231 20.3001 4.87793 21.2705 4.87793Z" fill="url(#paint1_linear_201_2153)"/>
<path fill-rule="evenodd" clip-rule="evenodd" d="M20.0937 42.2703C18.9092 40.0458 18.4125 38.0528 18.4071 36.2358H17.4551C17.2606 36.2358 17.1009 36.0772 17.1009 35.8816C17.1009 35.6882 17.2595 35.5295 17.4551 35.5295H18.4299C18.456 35.1622 18.5016 34.8036 18.5647 34.4515H17.2117C17.0172 34.4515 16.8575 34.2928 16.8575 34.0972C16.8575 33.9038 17.0161 33.7451 17.2117 33.7451H18.719C18.8124 33.3778 18.9255 33.0192 19.0569 32.6671H17.3715C17.178 32.6671 17.0172 32.5084 17.0172 32.3128C17.0172 32.1194 17.178 31.9586 17.3715 31.9586H19.3438C19.5079 31.5934 19.6883 31.2348 19.8839 30.8816H18.0028C17.8094 30.8816 17.6507 30.723 17.6507 30.5274C17.6507 30.3329 17.8094 30.1731 18.0028 30.1731H20.3045C20.5338 29.808 20.7816 29.4494 21.0391 29.0973H18.8092C18.6136 29.0973 18.4549 28.9386 18.4549 28.743C18.4549 28.5485 18.6136 28.3887 18.8092 28.3887H21.5803C21.8704 28.0236 22.1715 27.6661 22.4812 27.3118H19.4221C19.2286 27.3118 19.07 27.151 19.07 26.9575C19.07 26.763 19.2286 26.6033 19.4221 26.6033H23.1147C23.4472 26.2392 23.7885 25.8806 24.1308 25.5253H20.8381C20.6435 25.5253 20.4838 25.3666 20.4838 25.1732C20.4838 24.9776 20.6424 24.8189 20.8381 24.8189H24.8176C25.0338 24.5972 25.2501 24.3766 25.4663 24.1571C25.6011 24.0191 25.7348 23.8822 25.8695 23.7409H22.7626C22.5692 23.7409 22.4083 23.5822 22.4083 23.3888C22.4083 23.1943 22.5692 23.0345 22.7626 23.0345H26.5444C26.8769 22.6824 27.2062 22.3238 27.5344 21.9565H24.7165C24.522 21.9565 24.3623 21.7979 24.3623 21.6022C24.3623 21.4088 24.5209 21.2502 24.7165 21.2502H28.1538C28.457 20.8959 28.7547 20.5373 29.047 20.1721H26.5824C26.3879 20.1721 26.2281 20.0135 26.2281 19.8179C26.2281 19.6244 26.3868 19.4658 26.5824 19.4658H29.5958C29.8642 19.1115 30.1229 18.7518 30.3739 18.3878H28.0147C27.8212 18.3878 27.6626 18.2291 27.6626 18.0335C27.6626 17.8401 27.8212 17.6792 28.0147 17.6792H30.8423C31.0694 17.325 31.2868 16.9664 31.4932 16.6034H29.3111C29.1166 16.6034 28.9568 16.4447 28.9568 16.2491C28.9568 16.0546 29.1155 15.8949 29.3111 15.8949H31.8747C32.0561 15.5406 32.2267 15.1809 32.3854 14.8179H30.1707C29.9762 14.8179 29.8164 14.6593 29.8164 14.4637C29.8164 14.2691 29.9751 14.1094 30.1707 14.1094H32.6745C32.8103 13.7551 32.9331 13.3954 33.0418 13.0325H31.24C31.0455 13.0325 30.8858 12.8716 30.8858 12.6782C30.8858 12.4837 31.0444 12.3239 31.24 12.3239H33.232C33.3189 11.9686 33.3906 11.61 33.4471 11.2459H31.9486C31.754 11.2459 31.5943 11.0884 31.5943 10.8938C31.5943 10.6993 31.7529 10.5396 31.9486 10.5396H33.5351C33.571 10.1842 33.5895 9.8256 33.5927 9.46373H32.8733C32.6788 9.46373 32.5191 9.3029 32.5191 9.10947C32.5191 8.91494 32.6777 8.7552 32.8733 8.7552H33.5797C33.4754 6.67089 32.8157 4.48553 31.3976 2.20996C33.4754 11.2014 27.2257 16.4393 22.5105 20.9915C17.3725 25.9599 11.0675 31.6652 20.0937 42.2703Z" fill="url(#paint2_linear_201_2153)"/>
<path fill-rule="evenodd" clip-rule="evenodd" d="M33.4995 15.1606H39.5829C40.5512 15.1606 41.3445 15.9539 41.3445 16.9233V24.953C41.3445 25.9212 40.5512 26.7156 39.5829 26.7156H31.0631V35.2332C31.0631 36.2036 30.2687 36.9958 29.3005 36.9958H21.2708C20.6905 36.9958 20.1743 36.7122 19.8516 36.2764C20.1895 32.924 21.6109 30.1518 23.9767 27.3492C26.6489 24.1825 30.0177 21.5016 32.177 17.9317C32.7214 17.033 33.1637 16.1126 33.4995 15.1606Z" fill="url(#paint3_linear_201_2153)"/>
<defs>
<linearGradient id="paint0_linear_201_2153" x1="0.000200029" y1="24.927" x2="47.7113" y2="24.927" gradientUnits="userSpaceOnUse">
<stop stop-color="#FF375F"/>
<stop offset="0.5933" stop-color="#EF3D61"/>
</linearGradient>
<linearGradient id="paint1_linear_201_2153" x1="9.22608" y1="15.7976" x2="30.6208" y2="15.7976" gradientUnits="userSpaceOnUse">
<stop offset="1.38522e-07" stop-color="#FF375F"/>
<stop offset="0.5217" stop-color="#EF3D61"/>
<stop offset="1" stop-color="#EF3D61"/>
</linearGradient>
<linearGradient id="paint2_linear_201_2153" x1="15.5353" y1="22.244" x2="33.593" y2="22.244" gradientUnits="userSpaceOnUse">
<stop stop-color="#FF375F"/>
<stop offset="1" stop-color="#FF375F"/>
</linearGradient>
<linearGradient id="paint3_linear_201_2153" x1="19.8517" y1="26.0788" x2="41.3447" y2="26.0788" gradientUnits="userSpaceOnUse">
<stop stop-color="#FF375F"/>
<stop offset="1" stop-color="#FF375F"/>
</linearGradient>
</defs>
</svg>
